<?xml version="1.0" encoding="UTF-8"?>
<svg width="746px" height="560px" viewBox="0 0 746 560" version="1.1" xmlns="http://www.w3.org/2000/svg" xmlns:xlink="http://www.w3.org/1999/xlink">
    <title>HERO Copy</title>
    <defs>
        <path d="M0,225.606604 C0,350.207627 106.77804,451.216216 238.49682,451.216216 L238.49682,451.216216 C370.21878,451.216216 477,350.207627 477,225.606604 L477,225.606604 C477,101.008589 370.21878,0 238.49682,0 L238.49682,0 C106.77804,0 0,101.008589 0,225.606604 M141.90432,225.606604 C141.90432,175.145927 185.15232,134.235929 238.49682,134.235929 L238.49682,134.235929 C291.8445,134.235929 335.08932,175.145927 335.08932,225.606604 L335.08932,225.606604 C335.08932,276.070289 291.8445,316.977279 238.49682,316.977279 L238.49682,316.977279 C185.15232,316.977279 141.90432,276.070289 141.90432,225.606604" id="path-1"></path>
        <path d="M0,288.513514 L152.496807,288.513514 C152.496807,208.843497 220.77653,144.258267 305,144.258267 L305,144.258267 L305,0 C136.549867,0 0,129.173481 0,288.513514" id="path-3"></path>
        <path d="M0,288.513514 L152.496807,288.513514 C152.496807,208.843497 220.77653,144.258267 305,144.258267 L305,144.258267 L305,0 C136.549867,0 0,129.173481 0,288.513514" id="path-5"></path>
        <path d="M0,288.513514 L152.496807,288.513514 C152.496807,208.843497 220.77653,144.258267 305,144.258267 L305,144.258267 L305,0 C136.549867,0 0,129.173481 0,288.513514" id="path-7"></path>
        <path d="M0,288.513514 L152.496807,288.513514 C152.496807,208.843497 220.77653,144.258267 305,144.258267 L305,144.258267 L305,0 C136.549867,0 0,129.173481 0,288.513514" id="path-9"></path>
        <path d="M0,288.513514 L152.496807,288.513514 C152.496807,208.843497 220.77653,144.258267 305,144.258267 L305,144.258267 L305,0 C136.549867,0 0,129.173481 0,288.513514" id="path-11"></path>
        <path d="M0,288.513514 L152.496807,288.513514 C152.496807,208.843497 220.77653,144.258267 305,144.258267 L305,144.258267 L305,0 C136.549867,0 0,129.173481 0,288.513514" id="path-13"></path>
        <path d="M0,288.513514 L152.496807,288.513514 C152.496807,208.843497 220.77653,144.258267 305,144.258267 L305,144.258267 L305,0 C136.549867,0 0,129.173481 0,288.513514" id="path-15"></path>
        <path d="M0,288.513514 L152.496807,288.513514 C152.496807,208.843497 220.77653,144.258267 305,144.258267 L305,144.258267 L305,0 C136.549867,0 0,129.173481 0,288.513514" id="path-17"></path>
        <path d="M0,288.513514 L152.496807,288.513514 C152.496807,208.843497 220.77653,144.258267 305,144.258267 L305,144.258267 L305,0 C136.549867,0 0,129.173481 0,288.513514" id="path-19"></path>
        <path d="M0,288.513514 L152.496807,288.513514 C152.496807,208.843497 220.77653,144.258267 305,144.258267 L305,144.258267 L305,0 C136.549867,0 0,129.173481 0,288.513514" id="path-21"></path>
        <path d="M0,288.513514 L152.496807,288.513514 C152.496807,208.843497 220.77653,144.258267 305,144.258267 L305,144.258267 L305,0 C136.549867,0 0,129.173481 0,288.513514" id="path-23"></path>
        <path d="M0,288.513514 L152.496807,288.513514 C152.496807,208.843497 220.77653,144.258267 305,144.258267 L305,144.258267 L305,0 C136.549867,0 0,129.173481 0,288.513514" id="path-25"></path>
        <path d="M0,288.513514 L152.496807,288.513514 C152.496807,208.843497 220.77653,144.258267 305,144.258267 L305,144.258267 L305,0 C136.549867,0 0,129.173481 0,288.513514" id="path-27"></path>
        <path d="M0,288.513514 L152.496807,288.513514 C152.496807,208.843497 220.77653,144.258267 305,144.258267 L305,144.258267 L305,0 C136.549867,0 0,129.173481 0,288.513514" id="path-29"></path>
        <path d="M0,288.513514 L152.496807,288.513514 C152.496807,208.843497 220.77653,144.258267 305,144.258267 L305,144.258267 L305,0 C136.549867,0 0,129.173481 0,288.513514" id="path-31"></path>
        <path d="M0,288.513514 L152.496807,288.513514 C152.496807,208.843497 220.77653,144.258267 305,144.258267 L305,144.258267 L305,0 C136.549867,0 0,129.173481 0,288.513514" id="path-33"></path>
        <path d="M0,288.513514 L152.496807,288.513514 C152.496807,208.843497 220.77653,144.258267 305,144.258267 L305,144.258267 L305,0 C136.549867,0 0,129.173481 0,288.513514" id="path-35"></path>
        <path d="M0,288.513514 L152.496807,288.513514 C152.496807,208.843497 220.77653,144.258267 305,144.258267 L305,144.258267 L305,0 C136.549867,0 0,129.173481 0,288.513514" id="path-37"></path>
        <path d="M0,288.513514 L152.496807,288.513514 C152.496807,208.843497 220.77653,144.258267 305,144.258267 L305,144.258267 L305,0 C136.549867,0 0,129.173481 0,288.513514" id="path-39"></path>
        <path d="M0,288.513514 L152.496807,288.513514 C152.496807,208.843497 220.77653,144.258267 305,144.258267 L305,144.258267 L305,0 C136.549867,0 0,129.173481 0,288.513514" id="path-41"></path>
        <path d="M0,288.513514 L152.496807,288.513514 C152.496807,208.843497 220.77653,144.258267 305,144.258267 L305,144.258267 L305,0 C136.549867,0 0,129.173481 0,288.513514" id="path-43"></path>
        <path d="M0,288.513514 L152.496807,288.513514 C152.496807,208.843497 220.77653,144.258267 305,144.258267 L305,144.258267 L305,0 C136.549867,0 0,129.173481 0,288.513514" id="path-45"></path>
        <path d="M0,288.513514 L152.496807,288.513514 C152.496807,208.843497 220.77653,144.258267 305,144.258267 L305,144.258267 L305,0 C136.549867,0 0,129.173481 0,288.513514" id="path-47"></path>
        <path d="M0,288.513514 L152.496807,288.513514 C152.496807,208.843497 220.77653,144.258267 305,144.258267 L305,144.258267 L305,0 C136.549867,0 0,129.173481 0,288.513514" id="path-49"></path>
        <path d="M0,288.513514 L152.496807,288.513514 C152.496807,208.843497 220.77653,144.258267 305,144.258267 L305,144.258267 L305,0 C136.549867,0 0,129.173481 0,288.513514" id="path-51"></path>
        <path d="M0,288.513514 L152.496807,288.513514 C152.496807,208.843497 220.77653,144.258267 305,144.258267 L305,144.258267 L305,0 C136.549867,0 0,129.173481 0,288.513514" id="path-53"></path>
        <path d="M0,288.513514 L152.496807,288.513514 C152.496807,208.843497 220.77653,144.258267 305,144.258267 L305,144.258267 L305,0 C136.549867,0 0,129.173481 0,288.513514" id="path-55"></path>
        <path d="M0,288.513514 L152.496807,288.513514 C152.496807,208.843497 220.77653,144.258267 305,144.258267 L305,144.258267 L305,0 C136.549867,0 0,129.173481 0,288.513514" id="path-57"></path>
        <path d="M0,288.513514 L152.496807,288.513514 C152.496807,208.843497 220.77653,144.258267 305,144.258267 L305,144.258267 L305,0 C136.549867,0 0,129.173481 0,288.513514" id="path-59"></path>
        <path d="M0,288.513514 L152.496807,288.513514 C152.496807,208.843497 220.77653,144.258267 305,144.258267 L305,144.258267 L305,0 C136.549867,0 0,129.173481 0,288.513514" id="path-61"></path>
        <path d="M0,288.513514 L152.496807,288.513514 C152.496807,208.843497 220.77653,144.258267 305,144.258267 L305,144.258267 L305,0 C136.549867,0 0,129.173481 0,288.513514" id="path-63"></path>
        <path d="M0,288.513514 L152.496807,288.513514 C152.496807,208.843497 220.77653,144.258267 305,144.258267 L305,144.258267 L305,0 C136.549867,0 0,129.173481 0,288.513514" id="path-65"></path>
        <path d="M0,288.513514 L152.496807,288.513514 C152.496807,208.843497 220.77653,144.258267 305,144.258267 L305,144.258267 L305,0 C136.549867,0 0,129.173481 0,288.513514" id="path-67"></path>
        <path d="M0,288.513514 L152.496807,288.513514 C152.496807,208.843497 220.77653,144.258267 305,144.258267 L305,144.258267 L305,0 C136.549867,0 0,129.173481 0,288.513514" id="path-69"></path>
        <path d="M0,288.513514 L152.496807,288.513514 C152.496807,208.843497 220.77653,144.258267 305,144.258267 L305,144.258267 L305,0 C136.549867,0 0,129.173481 0,288.513514" id="path-71"></path>
        <path d="M0,288.513514 L152.496807,288.513514 C152.496807,208.843497 220.77653,144.258267 305,144.258267 L305,144.258267 L305,0 C136.549867,0 0,129.173481 0,288.513514" id="path-73"></path>
        <path d="M0,288.513514 L152.496807,288.513514 C152.496807,208.843497 220.77653,144.258267 305,144.258267 L305,144.258267 L305,0 C136.549867,0 0,129.173481 0,288.513514" id="path-75"></path>
        <path d="M0,288.513514 L152.496807,288.513514 C152.496807,208.843497 220.77653,144.258267 305,144.258267 L305,144.258267 L305,0 C136.549867,0 0,129.173481 0,288.513514" id="path-77"></path>
        <path d="M0,288.513514 L152.496807,288.513514 C152.496807,208.843497 220.77653,144.258267 305,144.258267 L305,144.258267 L305,0 C136.549867,0 0,129.173481 0,288.513514" id="path-79"></path>
        <path d="M0,288.513514 L152.496807,288.513514 C152.496807,208.843497 220.77653,144.258267 305,144.258267 L305,144.258267 L305,0 C136.549867,0 0,129.173481 0,288.513514" id="path-81"></path>
        <path d="M0,288.513514 L152.496807,288.513514 C152.496807,208.843497 220.77653,144.258267 305,144.258267 L305,144.258267 L305,0 C136.549867,0 0,129.173481 0,288.513514" id="path-83"></path>
        <path d="M152.496807,0 C152.496807,79.6700162 84.2202776,144.255247 0,144.255247 L0,144.255247 L0,288.513514 C168.44694,288.513514 305,159.340032 305,0 L305,0" id="path-85"></path>
        <path d="M152.496807,0 C152.496807,79.6700162 84.2202776,144.255247 0,144.255247 L0,144.255247 L0,288.513514 C168.44694,288.513514 305,159.340032 305,0 L305,0" id="path-87"></path>
        <path d="M152.496807,0 C152.496807,79.6700162 84.2202776,144.255247 0,144.255247 L0,144.255247 L0,288.513514 C168.44694,288.513514 305,159.340032 305,0 L305,0" id="path-89"></path>
        <path d="M152.496807,0 C152.496807,79.6700162 84.2202776,144.255247 0,144.255247 L0,144.255247 L0,288.513514 C168.44694,288.513514 305,159.340032 305,0 L305,0" id="path-91"></path>
        <path d="M152.496807,0 C152.496807,79.6700162 84.2202776,144.255247 0,144.255247 L0,144.255247 L0,288.513514 C168.44694,288.513514 305,159.340032 305,0 L305,0" id="path-93"></path>
        <path d="M152.496807,0 C152.496807,79.6700162 84.2202776,144.255247 0,144.255247 L0,144.255247 L0,288.513514 C168.44694,288.513514 305,159.340032 305,0 L305,0" id="path-95"></path>
        <path d="M152.496807,0 C152.496807,79.6700162 84.2202776,144.255247 0,144.255247 L0,144.255247 L0,288.513514 C168.44694,288.513514 305,159.340032 305,0 L305,0" id="path-97"></path>
        <path d="M152.496807,0 C152.496807,79.6700162 84.2202776,144.255247 0,144.255247 L0,144.255247 L0,288.513514 C168.44694,288.513514 305,159.340032 305,0 L305,0" id="path-99"></path>
        <path d="M152.496807,0 C152.496807,79.6700162 84.2202776,144.255247 0,144.255247 L0,144.255247 L0,288.513514 C168.44694,288.513514 305,159.340032 305,0 L305,0" id="path-101"></path>
        <path d="M152.496807,0 C152.496807,79.6700162 84.2202776,144.255247 0,144.255247 L0,144.255247 L0,288.513514 C168.44694,288.513514 305,159.340032 305,0 L305,0" id="path-103"></path>
        <path d="M152.496807,0 C152.496807,79.6700162 84.2202776,144.255247 0,144.255247 L0,144.255247 L0,288.513514 C168.44694,288.513514 305,159.340032 305,0 L305,0" id="path-105"></path>
        <path d="M152.496807,0 C152.496807,79.6700162 84.2202776,144.255247 0,144.255247 L0,144.255247 L0,288.513514 C168.44694,288.513514 305,159.340032 305,0 L305,0" id="path-107"></path>
        <path d="M152.496807,0 C152.496807,79.6700162 84.2202776,144.255247 0,144.255247 L0,144.255247 L0,288.513514 C168.44694,288.513514 305,159.340032 305,0 L305,0" id="path-109"></path>
        <path d="M152.496807,0 C152.496807,79.6700162 84.2202776,144.255247 0,144.255247 L0,144.255247 L0,288.513514 C168.44694,288.513514 305,159.340032 305,0 L305,0" id="path-111"></path>
        <path d="M152.496807,0 C152.496807,79.6700162 84.2202776,144.255247 0,144.255247 L0,144.255247 L0,288.513514 C168.44694,288.513514 305,159.340032 305,0 L305,0" id="path-113"></path>
        <path d="M152.496807,0 C152.496807,79.6700162 84.2202776,144.255247 0,144.255247 L0,144.255247 L0,288.513514 C168.44694,288.513514 305,159.340032 305,0 L305,0" id="path-115"></path>
        <path d="M152.496807,0 C152.496807,79.6700162 84.2202776,144.255247 0,144.255247 L0,144.255247 L0,288.513514 C168.44694,288.513514 305,159.340032 305,0 L305,0" id="path-117"></path>
        <path d="M152.496807,0 C152.496807,79.6700162 84.2202776,144.255247 0,144.255247 L0,144.255247 L0,288.513514 C168.44694,288.513514 305,159.340032 305,0 L305,0" id="path-119"></path>
        <path d="M152.496807,0 C152.496807,79.6700162 84.2202776,144.255247 0,144.255247 L0,144.255247 L0,288.513514 C168.44694,288.513514 305,159.340032 305,0 L305,0" id="path-121"></path>
        <path d="M152.496807,0 C152.496807,79.6700162 84.2202776,144.255247 0,144.255247 L0,144.255247 L0,288.513514 C168.44694,288.513514 305,159.340032 305,0 L305,0" id="path-123"></path>
        <path d="M152.496807,0 C152.496807,79.6700162 84.2202776,144.255247 0,144.255247 L0,144.255247 L0,288.513514 C168.44694,288.513514 305,159.340032 305,0 L305,0" id="path-125"></path>
        <path d="M152.496807,0 C152.496807,79.6700162 84.2202776,144.255247 0,144.255247 L0,144.255247 L0,288.513514 C168.44694,288.513514 305,159.340032 305,0 L305,0" id="path-127"></path>
        <path d="M152.496807,0 C152.496807,79.6700162 84.2202776,144.255247 0,144.255247 L0,144.255247 L0,288.513514 C168.44694,288.513514 305,159.340032 305,0 L305,0" id="path-129"></path>
        <path d="M152.496807,0 C152.496807,79.6700162 84.2202776,144.255247 0,144.255247 L0,144.255247 L0,288.513514 C168.44694,288.513514 305,159.340032 305,0 L305,0" id="path-131"></path>
        <path d="M152.496807,0 C152.496807,79.6700162 84.2202776,144.255247 0,144.255247 L0,144.255247 L0,288.513514 C168.44694,288.513514 305,159.340032 305,0 L305,0" id="path-133"></path>
        <path d="M152.496807,0 C152.496807,79.6700162 84.2202776,144.255247 0,144.255247 L0,144.255247 L0,288.513514 C168.44694,288.513514 305,159.340032 305,0 L305,0" id="path-135"></path>
        <path d="M152.496807,0 C152.496807,79.6700162 84.2202776,144.255247 0,144.255247 L0,144.255247 L0,288.513514 C168.44694,288.513514 305,159.340032 305,0 L305,0" id="path-137"></path>
        <path d="M152.496807,0 C152.496807,79.6700162 84.2202776,144.255247 0,144.255247 L0,144.255247 L0,288.513514 C168.44694,288.513514 305,159.340032 305,0 L305,0" id="path-139"></path>
        <path d="M152.496807,0 C152.496807,79.6700162 84.2202776,144.255247 0,144.255247 L0,144.255247 L0,288.513514 C168.44694,288.513514 305,159.340032 305,0 L305,0" id="path-141"></path>
        <path d="M152.496807,0 C152.496807,79.6700162 84.2202776,144.255247 0,144.255247 L0,144.255247 L0,288.513514 C168.44694,288.513514 305,159.340032 305,0 L305,0" id="path-143"></path>
        <path d="M152.496807,0 C152.496807,79.6700162 84.2202776,144.255247 0,144.255247 L0,144.255247 L0,288.513514 C168.44694,288.513514 305,159.340032 305,0 L305,0" id="path-145"></path>
        <path d="M152.496807,0 C152.496807,79.6700162 84.2202776,144.255247 0,144.255247 L0,144.255247 L0,288.513514 C168.44694,288.513514 305,159.340032 305,0 L305,0" id="path-147"></path>
        <path d="M152.496807,0 C152.496807,79.6700162 84.2202776,144.255247 0,144.255247 L0,144.255247 L0,288.513514 C168.44694,288.513514 305,159.340032 305,0 L305,0" id="path-149"></path>
        <path d="M152.496807,0 C152.496807,79.6700162 84.2202776,144.255247 0,144.255247 L0,144.255247 L0,288.513514 C168.44694,288.513514 305,159.340032 305,0 L305,0" id="path-151"></path>
        <path d="M152.496807,0 C152.496807,79.6700162 84.2202776,144.255247 0,144.255247 L0,144.255247 L0,288.513514 C168.44694,288.513514 305,159.340032 305,0 L305,0" id="path-153"></path>
        <path d="M152.496807,0 C152.496807,79.6700162 84.2202776,144.255247 0,144.255247 L0,144.255247 L0,288.513514 C168.44694,288.513514 305,159.340032 305,0 L305,0" id="path-155"></path>
        <path d="M152.496807,0 C152.496807,79.6700162 84.2202776,144.255247 0,144.255247 L0,144.255247 L0,288.513514 C168.44694,288.513514 305,159.340032 305,0 L305,0" id="path-157"></path>
        <path d="M152.496807,0 C152.496807,79.6700162 84.2202776,144.255247 0,144.255247 L0,144.255247 L0,288.513514 C168.44694,288.513514 305,159.340032 305,0 L305,0" id="path-159"></path>
        <path d="M152.496807,0 C152.496807,79.6700162 84.2202776,144.255247 0,144.255247 L0,144.255247 L0,288.513514 C168.44694,288.513514 305,159.340032 305,0 L305,0" id="path-161"></path>
        <path d="M152.496807,0 C152.496807,79.6700162 84.2202776,144.255247 0,144.255247 L0,144.255247 L0,288.513514 C168.44694,288.513514 305,159.340032 305,0 L305,0" id="path-163"></path>
        <path d="M152.496807,0 C152.496807,79.6700162 84.2202776,144.255247 0,144.255247 L0,144.255247 L0,288.513514 C168.44694,288.513514 305,159.340032 305,0 L305,0" id="path-165"></path>
    </defs>
    <g id="Modules-Overview" stroke="none" stroke-width="1" fill="none" fill-rule="evenodd">
        <g id="HERO-Copy" transform="translate(0.001995, 0.000000)">
            <g id="hero-shape" transform="translate(119.998005, 0.000000)">
                <g id="Group-3" transform="translate(74.000000, 54.864865)">
                    <mask id="mask-2" fill="white">
                        <use xlink:href="#path-1"></use>
                    </mask>
                    <g id="Clip-2"></g>
                    <path d="M238.49682,451.216216 C370.21878,451.216216 477,350.207627 477,225.606604 C477,101.008589 370.21878,0 238.49682,0 C106.77804,0 0,101.008589 0,225.606604 C0,350.207627 106.77804,451.216216 238.49682,451.216216 Z M141.90432,225.606604 C141.90432,175.145927 185.15232,134.235929 238.49682,134.235929 L238.49682,134.235929 C291.8445,134.235929 335.08932,175.145927 335.08932,225.606604 L335.08932,225.606604 C335.08932,276.070289 291.8445,316.977279 238.49682,316.977279 L238.49682,316.977279 C185.15232,316.977279 141.90432,276.070289 141.90432,225.606604" id="Fill-1" fill="#F2F3FC" mask="url(#mask-2)"></path>
                </g>
                <g id="Group-127">
                    <g id="Group-6">
                        <mask id="mask-4" fill="white">
                            <use xlink:href="#path-3"></use>
                        </mask>
                        <g id="Clip-5"></g>
                        <line x1="-63.7839303" y1="-127.677384" x2="328.114922" y2="7.24915306" id="Stroke-4" stroke="#161F31" stroke-width="0.446" mask="url(#mask-4)"></line>
                    </g>
                    <g id="Group-9">
                        <mask id="mask-6" fill="white">
                            <use xlink:href="#path-5"></use>
                        </mask>
                        <g id="Clip-8"></g>
                        <line x1="-63.7839303" y1="-117.518483" x2="328.114922" y2="17.4080541" id="Stroke-7" stroke="#161F31" stroke-width="0.446" mask="url(#mask-6)"></line>
                    </g>
                    <g id="Group-12">
                        <mask id="mask-8" fill="white">
                            <use xlink:href="#path-7"></use>
                        </mask>
                        <g id="Clip-11"></g>
                        <line x1="-63.7839303" y1="-107.359582" x2="328.114922" y2="27.5669551" id="Stroke-10" stroke="#161F31" stroke-width="0.446" mask="url(#mask-8)"></line>
                    </g>
                    <g id="Group-15">
                        <mask id="mask-10" fill="white">
                            <use xlink:href="#path-9"></use>
                        </mask>
                        <g id="Clip-14"></g>
                        <line x1="-63.7839303" y1="-97.2006814" x2="328.114922" y2="37.7258561" id="Stroke-13" stroke="#161F31" stroke-width="0.446" mask="url(#mask-10)"></line>
                    </g>
                    <g id="Group-18">
                        <mask id="mask-12" fill="white">
                            <use xlink:href="#path-11"></use>
                        </mask>
                        <g id="Clip-17"></g>
                        <line x1="-63.7839303" y1="-87.0417804" x2="328.114922" y2="47.8847571" id="Stroke-16" stroke="#161F31" stroke-width="0.446" mask="url(#mask-12)"></line>
                    </g>
                    <g id="Group-21">
                        <mask id="mask-14" fill="white">
                            <use xlink:href="#path-13"></use>
                        </mask>
                        <g id="Clip-20"></g>
                        <line x1="-63.7839303" y1="-76.8828793" x2="328.114922" y2="58.0436581" id="Stroke-19" stroke="#161F31" stroke-width="0.446" mask="url(#mask-14)"></line>
                    </g>
                    <g id="Group-24">
                        <mask id="mask-16" fill="white">
                            <use xlink:href="#path-15"></use>
                        </mask>
                        <g id="Clip-23"></g>
                        <line x1="-63.7839303" y1="-66.7239783" x2="328.114922" y2="68.2025591" id="Stroke-22" stroke="#161F31" stroke-width="0.446" mask="url(#mask-16)"></line>
                    </g>
                    <g id="Group-27">
                        <mask id="mask-18" fill="white">
                            <use xlink:href="#path-17"></use>
                        </mask>
                        <g id="Clip-26"></g>
                        <line x1="-63.7839303" y1="-56.5650773" x2="328.114922" y2="78.3614601" id="Stroke-25" stroke="#161F31" stroke-width="0.446" mask="url(#mask-18)"></line>
                    </g>
                    <g id="Group-30">
                        <mask id="mask-20" fill="white">
                            <use xlink:href="#path-19"></use>
                        </mask>
                        <g id="Clip-29"></g>
                        <line x1="-63.7839303" y1="-46.4061763" x2="328.114922" y2="88.5203612" id="Stroke-28" stroke="#161F31" stroke-width="0.446" mask="url(#mask-20)"></line>
                    </g>
                    <g id="Group-33">
                        <mask id="mask-22" fill="white">
                            <use xlink:href="#path-21"></use>
                        </mask>
                        <g id="Clip-32"></g>
                        <line x1="-63.7839303" y1="-36.2475773" x2="328.114922" y2="98.6789602" id="Stroke-31" stroke="#161F31" stroke-width="0.446" mask="url(#mask-22)"></line>
                    </g>
                    <g id="Group-36">
                        <mask id="mask-24" fill="white">
                            <use xlink:href="#path-23"></use>
                        </mask>
                        <g id="Clip-35"></g>
                        <line x1="-63.7839303" y1="-26.0886763" x2="328.114922" y2="108.837861" id="Stroke-34" stroke="#161F31" stroke-width="0.446" mask="url(#mask-24)"></line>
                    </g>
                    <g id="Group-39">
                        <mask id="mask-26" fill="white">
                            <use xlink:href="#path-25"></use>
                        </mask>
                        <g id="Clip-38"></g>
                        <line x1="-63.7839303" y1="-15.9297753" x2="328.114922" y2="118.996762" id="Stroke-37" stroke="#161F31" stroke-width="0.446" mask="url(#mask-26)"></line>
                    </g>
                    <g id="Group-42">
                        <mask id="mask-28" fill="white">
                            <use xlink:href="#path-27"></use>
                        </mask>
                        <g id="Clip-41"></g>
                        <line x1="-63.7839303" y1="-5.77087427" x2="328.114922" y2="129.155663" id="Stroke-40" stroke="#161F31" stroke-width="0.446" mask="url(#mask-28)"></line>
                    </g>
                    <g id="Group-45">
                        <mask id="mask-30" fill="white">
                            <use xlink:href="#path-29"></use>
                        </mask>
                        <g id="Clip-44"></g>
                        <line x1="-63.7839303" y1="4.38802675" x2="328.114922" y2="139.314564" id="Stroke-43" stroke="#161F31" stroke-width="0.446" mask="url(#mask-30)"></line>
                    </g>
                    <g id="Group-48">
                        <mask id="mask-32" fill="white">
                            <use xlink:href="#path-31"></use>
                        </mask>
                        <g id="Clip-47"></g>
                        <line x1="-63.7839303" y1="14.5469278" x2="328.114922" y2="149.473465" id="Stroke-46" stroke="#161F31" stroke-width="0.446" mask="url(#mask-32)"></line>
                    </g>
                    <g id="Group-51">
                        <mask id="mask-34" fill="white">
                            <use xlink:href="#path-33"></use>
                        </mask>
                        <g id="Clip-50"></g>
                        <line x1="-63.7839303" y1="24.7058288" x2="328.114922" y2="159.632366" id="Stroke-49" stroke="#161F31" stroke-width="0.446" mask="url(#mask-34)"></line>
                    </g>
                    <g id="Group-54">
                        <mask id="mask-36" fill="white">
                            <use xlink:href="#path-35"></use>
                        </mask>
                        <g id="Clip-53"></g>
                        <line x1="-63.7839303" y1="34.8647298" x2="328.114922" y2="169.791267" id="Stroke-52" stroke="#161F31" stroke-width="0.446" mask="url(#mask-36)"></line>
                    </g>
                    <g id="Group-57">
                        <mask id="mask-38" fill="white">
                            <use xlink:href="#path-37"></use>
                        </mask>
                        <g id="Clip-56"></g>
                        <line x1="-63.7839303" y1="45.0236308" x2="328.114922" y2="179.950168" id="Stroke-55" stroke="#161F31" stroke-width="0.446" mask="url(#mask-38)"></line>
                    </g>
                    <g id="Group-60">
                        <mask id="mask-40" fill="white">
                            <use xlink:href="#path-39"></use>
                        </mask>
                        <g id="Clip-59"></g>
                        <line x1="-63.7839303" y1="55.1822298" x2="328.114922" y2="190.108767" id="Stroke-58" stroke="#161F31" stroke-width="0.446" mask="url(#mask-40)"></line>
                    </g>
                    <g id="Group-63">
                        <mask id="mask-42" fill="white">
                            <use xlink:href="#path-41"></use>
                        </mask>
                        <g id="Clip-62"></g>
                        <line x1="-63.7839303" y1="65.3411308" x2="328.114922" y2="200.267668" id="Stroke-61" stroke="#161F31" stroke-width="0.446" mask="url(#mask-42)"></line>
                    </g>
                    <g id="Group-66">
                        <mask id="mask-44" fill="white">
                            <use xlink:href="#path-43"></use>
                        </mask>
                        <g id="Clip-65"></g>
                        <line x1="-63.7839303" y1="75.5000318" x2="328.114922" y2="210.426569" id="Stroke-64" stroke="#161F31" stroke-width="0.446" mask="url(#mask-44)"></line>
                    </g>
                    <g id="Group-69">
                        <mask id="mask-46" fill="white">
                            <use xlink:href="#path-45"></use>
                        </mask>
                        <g id="Clip-68"></g>
                        <line x1="-63.7839303" y1="85.6589328" x2="328.114922" y2="220.58547" id="Stroke-67" stroke="#161F31" stroke-width="0.446" mask="url(#mask-46)"></line>
                    </g>
                    <g id="Group-72">
                        <mask id="mask-48" fill="white">
                            <use xlink:href="#path-47"></use>
                        </mask>
                        <g id="Clip-71"></g>
                        <line x1="-63.7839303" y1="95.8178338" x2="328.114922" y2="230.744371" id="Stroke-70" stroke="#161F31" stroke-width="0.446" mask="url(#mask-48)"></line>
                    </g>
                    <g id="Group-75">
                        <mask id="mask-50" fill="white">
                            <use xlink:href="#path-49"></use>
                        </mask>
                        <g id="Clip-74"></g>
                        <line x1="-63.7839303" y1="105.976735" x2="328.114922" y2="240.903272" id="Stroke-73" stroke="#161F31" stroke-width="0.446" mask="url(#mask-50)"></line>
                    </g>
                    <g id="Group-78">
                        <mask id="mask-52" fill="white">
                            <use xlink:href="#path-51"></use>
                        </mask>
                        <g id="Clip-77"></g>
                        <line x1="-63.7839303" y1="116.135636" x2="328.114922" y2="251.062173" id="Stroke-76" stroke="#161F31" stroke-width="0.446" mask="url(#mask-52)"></line>
                    </g>
                    <g id="Group-81">
                        <mask id="mask-54" fill="white">
                            <use xlink:href="#path-53"></use>
                        </mask>
                        <g id="Clip-80"></g>
                        <line x1="-63.7839303" y1="126.294537" x2="328.114922" y2="261.221074" id="Stroke-79" stroke="#161F31" stroke-width="0.446" mask="url(#mask-54)"></line>
                    </g>
                    <g id="Group-84">
                        <mask id="mask-56" fill="white">
                            <use xlink:href="#path-55"></use>
                        </mask>
                        <g id="Clip-83"></g>
                        <line x1="-63.7839303" y1="136.453438" x2="328.114922" y2="271.379975" id="Stroke-82" stroke="#161F31" stroke-width="0.446" mask="url(#mask-56)"></line>
                    </g>
                    <g id="Group-87">
                        <mask id="mask-58" fill="white">
                            <use xlink:href="#path-57"></use>
                        </mask>
                        <g id="Clip-86"></g>
                        <line x1="-63.7839303" y1="146.612339" x2="328.114922" y2="281.538876" id="Stroke-85" stroke="#161F31" stroke-width="0.446" mask="url(#mask-58)"></line>
                    </g>
                    <g id="Group-90">
                        <mask id="mask-60" fill="white">
                            <use xlink:href="#path-59"></use>
                        </mask>
                        <g id="Clip-89"></g>
                        <line x1="-63.7839303" y1="156.770938" x2="328.114922" y2="291.697475" id="Stroke-88" stroke="#161F31" stroke-width="0.446" mask="url(#mask-60)"></line>
                    </g>
                    <g id="Group-93">
                        <mask id="mask-62" fill="white">
                            <use xlink:href="#path-61"></use>
                        </mask>
                        <g id="Clip-92"></g>
                        <line x1="-63.7839303" y1="166.929839" x2="328.114922" y2="301.856376" id="Stroke-91" stroke="#161F31" stroke-width="0.446" mask="url(#mask-62)"></line>
                    </g>
                    <g id="Group-96">
                        <mask id="mask-64" fill="white">
                            <use xlink:href="#path-63"></use>
                        </mask>
                        <g id="Clip-95"></g>
                        <line x1="-63.7839303" y1="177.08874" x2="328.114922" y2="312.015277" id="Stroke-94" stroke="#161F31" stroke-width="0.446" mask="url(#mask-64)"></line>
                    </g>
                    <g id="Group-99">
                        <mask id="mask-66" fill="white">
                            <use xlink:href="#path-65"></use>
                        </mask>
                        <g id="Clip-98"></g>
                        <line x1="-63.7839303" y1="187.247641" x2="328.114922" y2="322.174178" id="Stroke-97" stroke="#161F31" stroke-width="0.446" mask="url(#mask-66)"></line>
                    </g>
                    <g id="Group-102">
                        <mask id="mask-68" fill="white">
                            <use xlink:href="#path-67"></use>
                        </mask>
                        <g id="Clip-101"></g>
                        <line x1="-63.7839303" y1="197.406542" x2="328.114922" y2="332.333079" id="Stroke-100" stroke="#161F31" stroke-width="0.446" mask="url(#mask-68)"></line>
                    </g>
                    <g id="Group-105">
                        <mask id="mask-70" fill="white">
                            <use xlink:href="#path-69"></use>
                        </mask>
                        <g id="Clip-104"></g>
                        <line x1="-63.7839303" y1="207.565443" x2="328.114922" y2="342.49198" id="Stroke-103" stroke="#161F31" stroke-width="0.446" mask="url(#mask-70)"></line>
                    </g>
                    <g id="Group-108">
                        <mask id="mask-72" fill="white">
                            <use xlink:href="#path-71"></use>
                        </mask>
                        <g id="Clip-107"></g>
                        <line x1="-63.7839303" y1="217.724344" x2="328.114922" y2="352.650881" id="Stroke-106" stroke="#161F31" stroke-width="0.446" mask="url(#mask-72)"></line>
                    </g>
                    <g id="Group-111">
                        <mask id="mask-74" fill="white">
                            <use xlink:href="#path-73"></use>
                        </mask>
                        <g id="Clip-110"></g>
                        <line x1="-63.7839303" y1="227.883245" x2="328.114922" y2="362.809782" id="Stroke-109" stroke="#161F31" stroke-width="0.446" mask="url(#mask-74)"></line>
                    </g>
                    <g id="Group-114">
                        <mask id="mask-76" fill="white">
                            <use xlink:href="#path-75"></use>
                        </mask>
                        <g id="Clip-113"></g>
                        <line x1="-63.7839303" y1="238.041844" x2="328.114922" y2="372.968381" id="Stroke-112" stroke="#161F31" stroke-width="0.446" mask="url(#mask-76)"></line>
                    </g>
                    <g id="Group-117">
                        <mask id="mask-78" fill="white">
                            <use xlink:href="#path-77"></use>
                        </mask>
                        <g id="Clip-116"></g>
                        <line x1="-63.7839303" y1="248.200745" x2="328.114922" y2="383.127282" id="Stroke-115" stroke="#161F31" stroke-width="0.446" mask="url(#mask-78)"></line>
                    </g>
                    <g id="Group-120">
                        <mask id="mask-80" fill="white">
                            <use xlink:href="#path-79"></use>
                        </mask>
                        <g id="Clip-119"></g>
                        <line x1="-63.7839303" y1="258.359646" x2="328.114922" y2="393.286183" id="Stroke-118" stroke="#161F31" stroke-width="0.446" mask="url(#mask-80)"></line>
                    </g>
                    <g id="Group-123">
                        <mask id="mask-82" fill="white">
                            <use xlink:href="#path-81"></use>
                        </mask>
                        <g id="Clip-122"></g>
                        <line x1="-63.7839303" y1="268.518547" x2="328.114922" y2="403.445085" id="Stroke-121" stroke="#161F31" stroke-width="0.446" mask="url(#mask-82)"></line>
                    </g>
                    <g id="Group-126">
                        <mask id="mask-84" fill="white">
                            <use xlink:href="#path-83"></use>
                        </mask>
                        <g id="Clip-125"></g>
                        <line x1="-63.7839303" y1="278.677448" x2="328.114922" y2="413.603986" id="Stroke-124" stroke="#161F31" stroke-width="0.446" mask="url(#mask-84)"></line>
                    </g>
                </g>
                <g id="Group-251" transform="translate(321.000000, 271.486486)">
                    <g id="Group-130">
                        <mask id="mask-86" fill="white">
                            <use xlink:href="#path-85"></use>
                        </mask>
                        <g id="Clip-129"></g>
                        <line x1="368.781376" y1="416.190596" x2="-23.1174765" y2="281.264058" id="Stroke-128" stroke="#161F31" stroke-width="0.446" mask="url(#mask-86)"></line>
                    </g>
                    <g id="Group-133">
                        <mask id="mask-88" fill="white">
                            <use xlink:href="#path-87"></use>
                        </mask>
                        <g id="Clip-132"></g>
                        <line x1="368.781376" y1="406.031695" x2="-23.1174765" y2="271.105157" id="Stroke-131" stroke="#161F31" stroke-width="0.446" mask="url(#mask-88)"></line>
                    </g>
                    <g id="Group-136">
                        <mask id="mask-90" fill="white">
                            <use xlink:href="#path-89"></use>
                        </mask>
                        <g id="Clip-135"></g>
                        <line x1="368.781376" y1="395.872794" x2="-23.1174765" y2="260.946256" id="Stroke-134" stroke="#161F31" stroke-width="0.446" mask="url(#mask-90)"></line>
                    </g>
                    <g id="Group-139">
                        <mask id="mask-92" fill="white">
                            <use xlink:href="#path-91"></use>
                        </mask>
                        <g id="Clip-138"></g>
                        <line x1="368.781376" y1="385.714195" x2="-23.1174765" y2="250.787657" id="Stroke-137" stroke="#161F31" stroke-width="0.446" mask="url(#mask-92)"></line>
                    </g>
                    <g id="Group-142">
                        <mask id="mask-94" fill="white">
                            <use xlink:href="#path-93"></use>
                        </mask>
                        <g id="Clip-141"></g>
                        <line x1="368.781376" y1="375.555294" x2="-23.1174765" y2="240.628756" id="Stroke-140" stroke="#161F31" stroke-width="0.446" mask="url(#mask-94)"></line>
                    </g>
                    <g id="Group-145">
                        <mask id="mask-96" fill="white">
                            <use xlink:href="#path-95"></use>
                        </mask>
                        <g id="Clip-144"></g>
                        <line x1="368.781376" y1="365.396393" x2="-23.1174765" y2="230.469855" id="Stroke-143" stroke="#161F31" stroke-width="0.446" mask="url(#mask-96)"></line>
                    </g>
                    <g id="Group-148">
                        <mask id="mask-98" fill="white">
                            <use xlink:href="#path-97"></use>
                        </mask>
                        <g id="Clip-147"></g>
                        <line x1="368.781376" y1="355.237492" x2="-23.1174765" y2="220.310954" id="Stroke-146" stroke="#161F31" stroke-width="0.446" mask="url(#mask-98)"></line>
                    </g>
                    <g id="Group-151">
                        <mask id="mask-100" fill="white">
                            <use xlink:href="#path-99"></use>
                        </mask>
                        <g id="Clip-150"></g>
                        <line x1="368.781376" y1="345.078591" x2="-23.1174765" y2="210.152053" id="Stroke-149" stroke="#161F31" stroke-width="0.446" mask="url(#mask-100)"></line>
                    </g>
                    <g id="Group-154">
                        <mask id="mask-102" fill="white">
                            <use xlink:href="#path-101"></use>
                        </mask>
                        <g id="Clip-153"></g>
                        <line x1="368.781376" y1="334.91969" x2="-23.1174765" y2="199.993152" id="Stroke-152" stroke="#161F31" stroke-width="0.446" mask="url(#mask-102)"></line>
                    </g>
                    <g id="Group-157">
                        <mask id="mask-104" fill="white">
                            <use xlink:href="#path-103"></use>
                        </mask>
                        <g id="Clip-156"></g>
                        <line x1="368.781376" y1="324.760789" x2="-23.1174765" y2="189.834251" id="Stroke-155" stroke="#161F31" stroke-width="0.446" mask="url(#mask-104)"></line>
                    </g>
                    <g id="Group-160">
                        <mask id="mask-106" fill="white">
                            <use xlink:href="#path-105"></use>
                        </mask>
                        <g id="Clip-159"></g>
                        <line x1="368.781376" y1="314.601888" x2="-23.1174765" y2="179.67535" id="Stroke-158" stroke="#161F31" stroke-width="0.446" mask="url(#mask-106)"></line>
                    </g>
                    <g id="Group-163">
                        <mask id="mask-108" fill="white">
                            <use xlink:href="#path-107"></use>
                        </mask>
                        <g id="Clip-162"></g>
                        <line x1="368.781376" y1="304.443289" x2="-23.1174765" y2="169.516751" id="Stroke-161" stroke="#161F31" stroke-width="0.446" mask="url(#mask-108)"></line>
                    </g>
                    <g id="Group-166">
                        <mask id="mask-110" fill="white">
                            <use xlink:href="#path-109"></use>
                        </mask>
                        <g id="Clip-165"></g>
                        <line x1="368.781376" y1="294.284388" x2="-23.1174765" y2="159.35785" id="Stroke-164" stroke="#161F31" stroke-width="0.446" mask="url(#mask-110)"></line>
                    </g>
                    <g id="Group-169">
                        <mask id="mask-112" fill="white">
                            <use xlink:href="#path-111"></use>
                        </mask>
                        <g id="Clip-168"></g>
                        <line x1="368.781376" y1="284.125487" x2="-23.1174765" y2="149.198949" id="Stroke-167" stroke="#161F31" stroke-width="0.446" mask="url(#mask-112)"></line>
                    </g>
                    <g id="Group-172">
                        <mask id="mask-114" fill="white">
                            <use xlink:href="#path-113"></use>
                        </mask>
                        <g id="Clip-171"></g>
                        <line x1="368.781376" y1="273.966586" x2="-23.1174765" y2="139.040048" id="Stroke-170" stroke="#161F31" stroke-width="0.446" mask="url(#mask-114)"></line>
                    </g>
                    <g id="Group-175">
                        <mask id="mask-116" fill="white">
                            <use xlink:href="#path-115"></use>
                        </mask>
                        <g id="Clip-174"></g>
                        <line x1="368.781376" y1="263.807685" x2="-23.1174765" y2="128.881147" id="Stroke-173" stroke="#161F31" stroke-width="0.446" mask="url(#mask-116)"></line>
                    </g>
                    <g id="Group-178">
                        <mask id="mask-118" fill="white">
                            <use xlink:href="#path-117"></use>
                        </mask>
                        <g id="Clip-177"></g>
                        <line x1="368.781376" y1="253.648784" x2="-23.1174765" y2="118.722246" id="Stroke-176" stroke="#161F31" stroke-width="0.446" mask="url(#mask-118)"></line>
                    </g>
                    <g id="Group-181">
                        <mask id="mask-120" fill="white">
                            <use xlink:href="#path-119"></use>
                        </mask>
                        <g id="Clip-180"></g>
                        <line x1="368.781376" y1="243.489883" x2="-23.1174765" y2="108.563345" id="Stroke-179" stroke="#161F31" stroke-width="0.446" mask="url(#mask-120)"></line>
                    </g>
                    <g id="Group-184">
                        <mask id="mask-122" fill="white">
                            <use xlink:href="#path-121"></use>
                        </mask>
                        <g id="Clip-183"></g>
                        <line x1="368.781376" y1="233.330982" x2="-23.1174765" y2="98.4044442" id="Stroke-182" stroke="#161F31" stroke-width="0.446" mask="url(#mask-122)"></line>
                    </g>
                    <g id="Group-187">
                        <mask id="mask-124" fill="white">
                            <use xlink:href="#path-123"></use>
                        </mask>
                        <g id="Clip-186"></g>
                        <line x1="368.781376" y1="223.172081" x2="-23.1174765" y2="88.2455432" id="Stroke-185" stroke="#161F31" stroke-width="0.446" mask="url(#mask-124)"></line>
                    </g>
                    <g id="Group-190">
                        <mask id="mask-126" fill="white">
                            <use xlink:href="#path-125"></use>
                        </mask>
                        <g id="Clip-189"></g>
                        <line x1="368.781376" y1="213.01318" x2="-23.1174765" y2="78.0866422" id="Stroke-188" stroke="#161F31" stroke-width="0.446" mask="url(#mask-126)"></line>
                    </g>
                    <g id="Group-193">
                        <mask id="mask-128" fill="white">
                            <use xlink:href="#path-127"></use>
                        </mask>
                        <g id="Clip-192"></g>
                        <line x1="368.781376" y1="202.854279" x2="-23.1174765" y2="67.9277412" id="Stroke-191" stroke="#161F31" stroke-width="0.446" mask="url(#mask-128)"></line>
                    </g>
                    <g id="Group-196">
                        <mask id="mask-130" fill="white">
                            <use xlink:href="#path-129"></use>
                        </mask>
                        <g id="Clip-195"></g>
                        <line x1="368.781376" y1="192.69568" x2="-23.1174765" y2="57.7691422" id="Stroke-194" stroke="#161F31" stroke-width="0.446" mask="url(#mask-130)"></line>
                    </g>
                    <g id="Group-199">
                        <mask id="mask-132" fill="white">
                            <use xlink:href="#path-131"></use>
                        </mask>
                        <g id="Clip-198"></g>
                        <line x1="368.781376" y1="182.536779" x2="-23.1174765" y2="47.6102412" id="Stroke-197" stroke="#161F31" stroke-width="0.446" mask="url(#mask-132)"></line>
                    </g>
                    <g id="Group-202">
                        <mask id="mask-134" fill="white">
                            <use xlink:href="#path-133"></use>
                        </mask>
                        <g id="Clip-201"></g>
                        <line x1="368.781376" y1="172.377878" x2="-23.1174765" y2="37.4513402" id="Stroke-200" stroke="#161F31" stroke-width="0.446" mask="url(#mask-134)"></line>
                    </g>
                    <g id="Group-205">
                        <mask id="mask-136" fill="white">
                            <use xlink:href="#path-135"></use>
                        </mask>
                        <g id="Clip-204"></g>
                        <line x1="368.781376" y1="162.218977" x2="-23.1174765" y2="27.2924392" id="Stroke-203" stroke="#161F31" stroke-width="0.446" mask="url(#mask-136)"></line>
                    </g>
                    <g id="Group-208">
                        <mask id="mask-138" fill="white">
                            <use xlink:href="#path-137"></use>
                        </mask>
                        <g id="Clip-207"></g>
                        <line x1="368.781376" y1="152.060076" x2="-23.1174765" y2="17.1335382" id="Stroke-206" stroke="#161F31" stroke-width="0.446" mask="url(#mask-138)"></line>
                    </g>
                    <g id="Group-211">
                        <mask id="mask-140" fill="white">
                            <use xlink:href="#path-139"></use>
                        </mask>
                        <g id="Clip-210"></g>
                        <line x1="368.781376" y1="141.901175" x2="-23.1174765" y2="6.97463714" id="Stroke-209" stroke="#161F31" stroke-width="0.446" mask="url(#mask-140)"></line>
                    </g>
                    <g id="Group-214">
                        <mask id="mask-142" fill="white">
                            <use xlink:href="#path-141"></use>
                        </mask>
                        <g id="Clip-213"></g>
                        <line x1="368.781376" y1="131.742274" x2="-23.1174765" y2="-3.18426387" id="Stroke-212" stroke="#161F31" stroke-width="0.446" mask="url(#mask-142)"></line>
                    </g>
                    <g id="Group-217">
                        <mask id="mask-144" fill="white">
                            <use xlink:href="#path-143"></use>
                        </mask>
                        <g id="Clip-216"></g>
                        <line x1="368.781376" y1="121.583373" x2="-23.1174765" y2="-13.3431649" id="Stroke-215" stroke="#161F31" stroke-width="0.446" mask="url(#mask-144)"></line>
                    </g>
                    <g id="Group-220">
                        <mask id="mask-146" fill="white">
                            <use xlink:href="#path-145"></use>
                        </mask>
                        <g id="Clip-219"></g>
                        <line x1="368.781376" y1="111.424774" x2="-23.1174765" y2="-23.5017639" id="Stroke-218" stroke="#161F31" stroke-width="0.446" mask="url(#mask-146)"></line>
                    </g>
                    <g id="Group-223">
                        <mask id="mask-148" fill="white">
                            <use xlink:href="#path-147"></use>
                        </mask>
                        <g id="Clip-222"></g>
                        <line x1="368.781376" y1="101.265873" x2="-23.1174765" y2="-33.6606649" id="Stroke-221" stroke="#161F31" stroke-width="0.446" mask="url(#mask-148)"></line>
                    </g>
                    <g id="Group-226">
                        <mask id="mask-150" fill="white">
                            <use xlink:href="#path-149"></use>
                        </mask>
                        <g id="Clip-225"></g>
                        <line x1="368.781376" y1="91.1069715" x2="-23.1174765" y2="-43.8195659" id="Stroke-224" stroke="#161F31" stroke-width="0.446" mask="url(#mask-150)"></line>
                    </g>
                    <g id="Group-229">
                        <mask id="mask-152" fill="white">
                            <use xlink:href="#path-151"></use>
                        </mask>
                        <g id="Clip-228"></g>
                        <line x1="368.781376" y1="80.9480705" x2="-23.1174765" y2="-53.9784669" id="Stroke-227" stroke="#161F31" stroke-width="0.446" mask="url(#mask-152)"></line>
                    </g>
                    <g id="Group-232">
                        <mask id="mask-154" fill="white">
                            <use xlink:href="#path-153"></use>
                        </mask>
                        <g id="Clip-231"></g>
                        <line x1="368.781376" y1="70.7891695" x2="-23.1174765" y2="-64.1373679" id="Stroke-230" stroke="#161F31" stroke-width="0.446" mask="url(#mask-154)"></line>
                    </g>
                    <g id="Group-235">
                        <mask id="mask-156" fill="white">
                            <use xlink:href="#path-155"></use>
                        </mask>
                        <g id="Clip-234"></g>
                        <line x1="368.781376" y1="60.6302685" x2="-23.1174765" y2="-74.2962689" id="Stroke-233" stroke="#161F31" stroke-width="0.446" mask="url(#mask-156)"></line>
                    </g>
                    <g id="Group-238">
                        <mask id="mask-158" fill="white">
                            <use xlink:href="#path-157"></use>
                        </mask>
                        <g id="Clip-237"></g>
                        <line x1="368.781376" y1="50.4713675" x2="-23.1174765" y2="-84.45517" id="Stroke-236" stroke="#161F31" stroke-width="0.446" mask="url(#mask-158)"></line>
                    </g>
                    <g id="Group-241">
                        <mask id="mask-160" fill="white">
                            <use xlink:href="#path-159"></use>
                        </mask>
                        <g id="Clip-240"></g>
                        <line x1="368.781376" y1="40.3124665" x2="-23.1174765" y2="-94.614071" id="Stroke-239" stroke="#161F31" stroke-width="0.446" mask="url(#mask-160)"></line>
                    </g>
                    <g id="Group-244">
                        <mask id="mask-162" fill="white">
                            <use xlink:href="#path-161"></use>
                        </mask>
                        <g id="Clip-243"></g>
                        <line x1="368.781376" y1="30.1535655" x2="-23.1174765" y2="-104.772972" id="Stroke-242" stroke="#161F31" stroke-width="0.446" mask="url(#mask-162)"></line>
                    </g>
                    <g id="Group-247">
                        <mask id="mask-164" fill="white">
                            <use xlink:href="#path-163"></use>
                        </mask>
                        <g id="Clip-246"></g>
                        <line x1="368.781376" y1="19.9946645" x2="-23.1174765" y2="-114.931873" id="Stroke-245" stroke="#161F31" stroke-width="0.446" mask="url(#mask-164)"></line>
                    </g>
                    <g id="Group-250">
                        <mask id="mask-166" fill="white">
                            <use xlink:href="#path-165"></use>
                        </mask>
                        <g id="Clip-249"></g>
                        <line x1="368.781376" y1="9.83606546" x2="-23.1174765" y2="-125.090472" id="Stroke-248" stroke="#161F31" stroke-width="0.446" mask="url(#mask-166)"></line>
                    </g>
                </g>
            </g>
            <g id="hero-image" transform="translate(0.000000, 51.003024)">
                <circle id="Oval" stroke="#161F31" cx="213" cy="193" r="164.5"></circle>
                <g id="Group-5" transform="translate(317.000000, 112.000000)">
                    <circle id="Oval" stroke="#161F31" fill="#FFFFFF" cx="56" cy="56" r="55.5"></circle>
                    <g id="Group-9" transform="translate(37.998005, 31.996976)">
                        <path d="M38,26.5 L8.46846871,26.7199362 C6.27715244,26.7199362 4.5,25.0056974 4.5,22.890402 L4.5,0.71993621" id="Stroke-1" stroke="#161F31"></path>
                        <polygon id="Stroke-7" fill="#7688FF" points="7 16.3929043 10.4143233 19.9334692 18.4537083 11.5961246 22.5285589 15.8216392 32 6 32 24 7 23.8841488"></polygon>
                        <polyline id="Stroke-3" stroke="#161F31" points="0 5 4.5 0 9 5"></polyline>
                        <polyline id="Stroke-5" stroke="#161F31" points="33 22 38 26.5 33 31"></polyline>
                        <polyline id="Stroke-7" stroke="#161F31" points="7 16.4425136 10.4142263 20 18.4538142 11.623073 22.5285912 15.8688267 32 6"></polyline>
                    </g>
                    <text id="RedisTimeSeries" font-family="Graphik-Regular, Graphik" font-size="10" font-weight="normal" letter-spacing="-0.238095238" fill="#161F31">
                        <tspan x="19.2557143" y="77.5">RedisTimeSeries</tspan>
                    </text>
                </g>
                <g id="Group-5-Copy" transform="translate(234.000000, 0.000000)">
                    <circle id="Oval" stroke="#161F31" fill="#FFFFFF" cx="56" cy="56" r="55.5"></circle>
                    <g id="Group-23" transform="translate(40.998005, 30.996976)">
                        <path d="M5,31 C2.23843908,31 0,28.7786903 0,26.038262 L0,4.96173802 C0,2.22130966 2.23843908,0 5,0" id="Stroke-1" stroke="#161F31"></path>
                        <path d="M26,0 C28.7615609,0 31,2.22130966 31,4.96173802 L31,26.038262 C31,28.7786903 28.7615609,31 26,31" id="Stroke-3" stroke="#161F31"></path>
                        <path d="M10,7.5 C10,8.88083049 8.88083049,10 7.5,10 C6.11916951,10 5,8.88083049 5,7.5 C5,6.11916951 6.11916951,5 7.5,5 C8.88083049,5 10,6.11916951 10,7.5 Z" id="Stroke-5" fill="#7688FF"></path>
                        <path d="M18,15.5 C18,16.8808305 16.8808305,18 15.5,18 C14.1191695,18 13,16.8808305 13,15.5 C13,14.1191695 14.1191695,13 15.5,13 C16.8808305,13 18,14.1191695 18,15.5 Z" id="Stroke-13" fill="#7688FF"></path>
                        <path d="M10,23.5 C10,24.8808305 8.88083049,26 7.5,26 C6.11916951,26 5,24.8808305 5,23.5 C5,22.1191695 6.11916951,21 7.5,21 C8.88083049,21 10,22.1191695 10,23.5 Z" id="Stroke-9" fill="#7688FF"></path>
                        <path d="M10,7.5 C10,8.88083049 8.88083049,10 7.5,10 C6.11916951,10 5,8.88083049 5,7.5 C5,6.11916951 6.11916951,5 7.5,5 C8.88083049,5 10,6.11916951 10,7.5 Z" id="Stroke-5" stroke="#161F31"></path>
                        <path d="M10,15.5 C10,16.8808305 8.88083049,18 7.5,18 C6.11916951,18 5,16.8808305 5,15.5 C5,14.1191695 6.11916951,13 7.5,13 C8.88083049,13 10,14.1191695 10,15.5 Z" id="Stroke-7" stroke="#161F31"></path>
                        <path d="M10,23.5 C10,24.8808305 8.88083049,26 7.5,26 C6.11916951,26 5,24.8808305 5,23.5 C5,22.1191695 6.11916951,21 7.5,21 C8.88083049,21 10,22.1191695 10,23.5 Z" id="Stroke-9" stroke="#161F31"></path>
                        <path d="M18,7.5 C18,8.88083049 16.8808305,10 15.5,10 C14.1191695,10 13,8.88083049 13,7.5 C13,6.11916951 14.1191695,5 15.5,5 C16.8808305,5 18,6.11916951 18,7.5 Z" id="Stroke-11" stroke="#161F31"></path>
                        <path d="M18,15.5 C18,16.8808305 16.8808305,18 15.5,18 C14.1191695,18 13,16.8808305 13,15.5 C13,14.1191695 14.1191695,13 15.5,13 C16.8808305,13 18,14.1191695 18,15.5 Z" id="Stroke-13" stroke="#161F31"></path>
                        <path d="M18,23.5 C18,24.8808305 16.8808305,26 15.5,26 C14.1191695,26 13,24.8808305 13,23.5 C13,22.1191695 14.1191695,21 15.5,21 C16.8808305,21 18,22.1191695 18,23.5 Z" id="Stroke-15" stroke="#161F31"></path>
                        <path d="M26,7.5 C26,8.88083049 24.8808305,10 23.5,10 C22.1191695,10 21,8.88083049 21,7.5 C21,6.11916951 22.1191695,5 23.5,5 C24.8808305,5 26,6.11916951 26,7.5 Z" id="Stroke-17" stroke="#161F31"></path>
                        <path d="M26,15.5 C26,16.8808305 24.8808305,18 23.5,18 C22.1191695,18 21,16.8808305 21,15.5 C21,14.1191695 22.1191695,13 23.5,13 C24.8808305,13 26,14.1191695 26,15.5 Z" id="Stroke-19" stroke="#161F31"></path>
                        <path d="M26,23.5 C26,24.8808305 24.8808305,26 23.5,26 C22.1191695,26 21,24.8808305 21,23.5 C21,22.1191695 22.1191695,21 23.5,21 C24.8808305,21 26,22.1191695 26,23.5 Z" id="Stroke-21" stroke="#161F31"></path>
                    </g>
                    <text id="RedisGraph" font-family="Graphik-Regular, Graphik" font-size="10" font-weight="normal" letter-spacing="-0.238095238" fill="#161F31">
                        <tspan x="30.4604762" y="77">RedisGraph</tspan>
                    </text>
                </g>
                <g id="Group-5-Copy-2" transform="translate(84.000000, 0.000000)">
                    <circle id="Oval" stroke="#161F31" fill="#FFFFFF" cx="56" cy="56" r="55.5"></circle>
                    <g id="Group-19" transform="translate(37.998005, 31.996976)">
                        <polygon id="Fill-1" fill="#161F31" points="8 17 6.69525127 17 6 21 6.97095436 21"></polygon>
                        <path d="M8,11.9994592 C8,11.4478096 7.55243243,11 7,11 C6.44756757,11 6,11.4478096 6,11.9994592 C6,12.5521904 6.44756757,13 7,13 C7.55243243,13 8,12.5521904 8,11.9994592 Z" id="Fill-2" fill="#161F31"></path>
                        <g id="Group-18">
                            <path d="M10,0 C8.34314286,0 7,1.567 7,3.5 L7,6" id="Stroke-4" stroke="#161F31"></path>
                            <path d="M21,0 L21,7.33333333 C21,9.35838095 22.641619,11 24.6666667,11 L31.2469487,10.5185337" id="Stroke-6" fill="#7688FF"></path>
                            <path d="M21,0 L21,7.66666667 C21,9.50761905 22.492381,11 24.3333333,11 L31,11" id="Stroke-6" stroke="#161F31"></path>
                            <path d="M9.43137255,0 L21.1960784,0 L31,9.83606557 L31,26.557377 C31,28.4586885 29.4637255,30 27.5686275,30 L9.43137255,30 C7.53627451,30 6,28.4586885 6,26.557377 L6,24.5901639" id="Stroke-8" stroke="#161F31"></path>
                            <path d="M14,15 C12.895,15 12,14.105 12,13 L12,10 C12,8.895 11.105,8 10,8" id="Stroke-10" stroke="#161F31"></path>
                            <path d="M14,15 C12.895,15 12,15.895 12,17 L12,20 C12,21.105 11.105,22 10,22" id="Stroke-12" stroke="#161F31"></path>
                            <path d="M0,15 C1.105,15 2,15.895 2,17 L2,20 C2,21.105 2.895,22 4,22" id="Stroke-14" stroke="#161F31"></path>
                            <path d="M0,15 C1.105,15 2,14.105 2,13 L2,10 C2,8.895 2.895,8 4,8" id="Stroke-16" stroke="#161F31"></path>
                        </g>
                    </g>
                    <text id="RedisJSON" font-family="Graphik-Regular, Graphik" font-size="10" font-weight="normal" letter-spacing="-0.238095238" fill="#161F31">
                        <tspan x="30.9714286" y="77">RedisJSON</tspan>
                    </text>
                </g>
                <g id="Group-5-Copy-4" transform="translate(32.000000, 245.000000)">
                    <circle id="Oval" stroke="#161F31" fill="#FFFFFF" cx="56" cy="56" r="55.5"></circle>
                    <g id="Group-19-Copy" transform="translate(37.998005, 29.996976)">
                        <path d="M25,17.5 C25,21.6427706 21.6419869,25 17.5005048,25 C13.3580131,25 10,21.6427706 10,17.5 C10,13.3572294 13.3580131,10 17.5005048,10 C21.6419869,10 25,13.3572294 25,17.5 Z" id="Stroke-1" fill="#7688FF"></path>
                        <path d="M25,17.5 C25,21.6427706 21.6419869,25 17.5005048,25 C13.3580131,25 10,21.6427706 10,17.5 C10,13.3572294 13.3580131,10 17.5005048,10 C21.6419869,10 25,13.3572294 25,17.5 Z" id="Stroke-1" stroke="#161F31"></path>
                        <path d="M13,35 C13,35 13.2879542,34.3249291 13.6397924,33.4995273 C13.992584,32.6750709 15.0051912,32 15.8900307,32 L19.1099693,32 C19.9948088,32 21.007416,32.6750709 21.3592542,33.4995273 C21.7120458,34.3249291 22,35 22,35" id="Stroke-3" stroke="#161F31"></path>
                        <path d="M13,0 C13,0 13.2879542,0.675070911 13.6397924,1.50047274 C13.992584,2.32492909 15.0051912,3 15.8900307,3 L19.1099693,3 C19.9948088,3 21.007416,2.32492909 21.3592542,1.50047274 C21.7120458,0.675070911 22,0 22,0" id="Stroke-5" stroke="#161F31"></path>
                        <path d="M26.6495392,32 C26.6495392,32 26.4162482,31.4235892 26.1308475,30.7197106 C25.8454469,30.015832 26.0426619,29.0089169 26.5693705,28.4830121 C27.0952773,27.9563057 27.9570911,27.0952971 28.482998,26.5685906 C29.0097065,26.0426859 30.015824,25.8454716 30.7205071,26.1308712 C31.4243885,26.4162707 32,26.6495607 32,26.6495607" id="Stroke-7" stroke="#161F31"></path>
                        <path d="M3,8.35046079 C3,8.35046079 3.57641082,8.58375179 4.28028941,8.86915245 C4.984168,9.15455312 5.99108315,8.95733805 6.51698788,8.43062952 C7.04369429,7.90472268 7.90470295,7.04290887 8.43140936,6.51700202 C8.95731409,5.99029349 9.15452837,4.98417598 8.86912885,4.27949287 C8.58372933,3.57561145 8.35043928,3 8.35043928,3" id="Stroke-9" stroke="#161F31"></path>
                        <path d="M35,22 C35,22 34.3249291,21.7120458 33.4995273,21.3602076 C32.6750709,21.007416 32,19.9948088 32,19.1099693 L32,15.8900307 C32,15.0051912 32.6750709,13.992584 33.4995273,13.6407458 C34.3249291,13.2879542 35,13 35,13" id="Stroke-11" stroke="#161F31"></path>
                        <path d="M0,22 C0,22 0.675070911,21.7120458 1.50047274,21.3602076 C2.32492909,21.007416 3,19.9948088 3,19.1099693 L3,15.8900307 C3,15.0051912 2.32492909,13.992584 1.50047274,13.6407458 C0.675070911,13.2879542 0,13 0,13" id="Stroke-13" stroke="#161F31"></path>
                        <path d="M32,8.35046079 C32,8.35046079 31.4235892,8.58375179 30.7197106,8.86915245 C30.015832,9.15455312 29.0089169,8.95733805 28.4830121,8.43062952 L26.5685906,6.51700202 C26.0426859,5.99029349 25.8454716,4.98417598 26.1308712,4.27949287 C26.4162707,3.57561145 26.6495607,3 26.6495607,3" id="Stroke-15" stroke="#161F31"></path>
                        <path d="M8.35046079,32 L8.86915245,30.7197106 C9.15455312,30.015832 8.95733805,29.0089169 8.43062952,28.4830121 C7.90472268,27.9563057 7.04290887,27.0952971 6.51700202,26.5685906 C5.99029349,26.0426859 4.98417598,25.8454716 4.27949287,26.1308712 L3,26.6495607" id="Stroke-17" stroke="#161F31"></path>
                    </g>
                    <text id="RedisGears" font-family="Graphik-Regular, Graphik" font-size="10" font-weight="normal" letter-spacing="-0.238095238" fill="#161F31">
                        <tspan x="30.3204762" y="80">RedisGears</tspan>
                    </text>
                </g>
                <g id="Group-5-Copy-5" transform="translate(288.000000, 245.000000)">
                    <circle id="Oval" stroke="#161F31" fill="#FFFFFF" cx="56" cy="56" r="55.5"></circle>
                    <g id="Group-9" transform="translate(36.998005, 30.996976)">
                        <path d="M19.4596703,13.9441416 L0.124143645,7.47495703 C-0.0388974489,7.42068263 -0.0421746568,7.23274739 0.119227833,7.17442266 L19.8218018,0.0636660906 C20.0495678,-0.0181505434 20.3092865,-0.0213908062 20.5403297,0.0555654337 L39.8758564,6.52474998 C40.0388974,6.57983445 40.0421747,6.76776969 39.8807722,6.82528435 L20.1781982,13.9360409 C19.9496129,14.0186676 19.6907135,14.0210978 19.4596703,13.9441416 Z" id="Stroke-1" fill="#7688FF"></path>
                        <path d="M19.4596703,13.9441416 L0.124143645,7.47495703 C-0.0388974489,7.42068263 -0.0421746568,7.23274739 0.119227833,7.17442266 L19.8218018,0.0636660906 C20.0495678,-0.0181505434 20.3092865,-0.0213908062 20.5403297,0.0555654337 L39.8758564,6.52474998 C40.0388974,6.57983445 40.0421747,6.76776969 39.8807722,6.82528435 L20.1781982,13.9360409 C19.9496129,14.0186676 19.6907135,14.0210978 19.4596703,13.9441416 Z" id="Stroke-1" stroke="#161F31"></path>
                        <path d="M11,29.3888833 L19.3624601,31.9478409 C19.5970149,32.0200513 19.8598494,32.0170426 20.0919089,31.940319 L29,29" id="Stroke-3" stroke="#161F31"></path>
                        <path d="M5,15.5597905 L18.8406504,19.9474822 C19.0699187,20.0198361 19.3268293,20.0175512 19.5536585,19.939866 L34,15" id="Stroke-5" stroke="#161F31"></path>
                        <path d="M8,22.474561 L19.3395917,25.9473469 C19.5757808,26.020123 19.8404467,26.0170907 20.0741232,25.9405242 L32,22" id="Stroke-7" stroke="#161F31"></path>
                    </g>
                    <text id="RedisBloom" font-family="Graphik-Regular, Graphik" font-size="10" font-weight="normal" letter-spacing="-0.238095238" fill="#161F31">
                        <tspan x="29.9954762" y="78">RedisBloom</tspan>
                    </text>
                </g>
                <g id="Group-5-Copy-6" transform="translate(0.000000, 112.000000)">
                    <circle id="Oval" stroke="#161F31" fill="#FFFFFF" cx="56" cy="56" r="55.5"></circle>
                    <g id="Group-9" transform="translate(40.998005, 30.996976)">
                        <path d="M12.6054245,0 C19.5671833,0 25.2108491,4.28002597 25.2108491,9.55888336 C25.2108491,11.2699416 24.6177561,12.8753084 23.5800876,14.2645315 L27.9408356,17.3752867 C28.5945081,17.8656568 29,18.5455096 29,19.2977278 C29,20.7907379 27.4044137,22 25.4355795,22 C24.4663073,22 23.5879043,21.7067301 22.9449798,21.2306427 L18.4562332,18.0275265 C16.708221,18.7235663 14.7169137,19.1177667 12.6054245,19.1177667 C5.64366577,19.1177667 0,14.8377407 0,9.55888336 C0,4.28002597 5.64366577,0 12.6054245,0 Z M12.3785356,4.8125 C9.05773602,4.8125 6.36585366,6.8899161 6.36585366,9.453125 C6.36585366,12.0163339 9.05773602,14.09375 12.3785356,14.09375 C15.6983615,14.09375 18.3902439,12.0163339 18.3902439,9.453125 C18.3902439,6.8899161 15.6983615,4.8125 12.3785356,4.8125 Z" id="Combined-Shape" fill="#7688FF"></path>
                        <path d="M18,9.5 C18,11.9855359 15.3135778,14 12.0004858,14 C8.68642215,14 6,11.9855359 6,9.5 C6,7.0144641 8.68642215,5 12.0004858,5 C15.3135778,5 18,7.0144641 18,9.5 Z" id="Stroke-1" stroke="#161F31"></path>
                        <path d="M18.4562332,18.0275265 C16.708221,18.7235663 14.7169137,19.1177667 12.6054245,19.1177667 C5.64366577,19.1177667 0,14.8377407 0,9.55888336 C0,4.28002597 5.64366577,0 12.6054245,0 C19.5671833,0 25.2108491,4.28002597 25.2108491,9.55888336 C25.2108491,11.2699416 24.6177561,12.8753084 23.5800876,14.2645315 L27.9408356,17.3752867 C28.5945081,17.8656568 29,18.5455096 29,19.2977278 C29,20.7907379 27.4044137,22 25.4355795,22 C24.4663073,22 23.5879043,21.7067301 22.9449798,21.2306427 L18.4562332,18.0275265 Z" id="Stroke-3" stroke="#161F31"></path>
                        <path d="M28.6858178,24.1954887 C28.8870908,24.5329704 29,24.9075274 29,25.3020482 C29,26.7917207 27.3966889,28 25.4193046,28 C24.4453397,28 23.5617023,27.707199 22.9156651,27.2318728 L18.4051867,24.0338778 C16.6487118,24.7288048 14.6487456,25.1214243 12.5260521,25.1214243 C6.17171683,25.1214243 0.910146596,21.5964048 0,17" id="Stroke-5" stroke="#161F31"></path>
                        <path d="M28.6858178,29.1954887 C28.8870908,29.5329704 29,29.9075274 29,30.3020482 C29,31.7917207 27.3966889,33 25.4193046,33 C24.4453397,33 23.5617023,32.707199 22.9156651,32.2318728 L18.4051867,29.0338778 C16.6487118,29.7288048 14.6487456,30.1214243 12.5260521,30.1214243 C6.17171683,30.1214243 0.910146596,26.5964048 0,22" id="Stroke-7" stroke="#161F31"></path>
                    </g>
                    <text id="RediSearch" font-family="Graphik-Regular, Graphik" font-size="10" font-weight="normal" letter-spacing="-0.238095238" fill="#161F31">
                        <tspan x="30.0304762" y="79">RediSearch</tspan>
                    </text>
                </g>
                <g id="Group-13" transform="translate(157.000000, 310.000000)">
                    <circle id="Oval" stroke="#161F31" fill="#FFFFFF" cx="56" cy="56" r="55.5"></circle>
                    <g id="Group-23" transform="translate(38.998005, 33.996976)">
                        <path d="M16,2.3002409 L19.3713365,0.323348121 C20.0724725,-0.0885876604 21.2315533,-0.109533548 21.9464178,0.275471807 L23.2202299,0.960701545 C23.9350945,1.34470948 24.5205185,2.33315587 24.5205185,3.15603001 L24.5205185,4.02777788 C24.5205185,4.85164945 25.1637985,5.68350039 25.949267,5.87799792 L28.0065863,6.38568633 C28.7920548,6.58018385 29.4363154,7.4120348 29.4363154,8.23590636 L29.4363154,8.80244274 C29.4363154,9.62531688 29.7608973,10.884065 30.1590248,11.6012122 L31.7005434,14.3760436 C32.098671,15.0921934 32.0996516,16.2651631 31.7044659,16.9833078 L29.4863265,21.0039207 C29.0911408,21.7220654 28.7675395,22.9828084 28.7675395,23.8056825 L28.7675395,24.5497602 C28.7675395,25.3726343 28.1321044,26.2374003 27.356442,26.4697999 L26.6013725,26.6972124 C25.8257102,26.9306094 25.1912556,27.6836639 25.1912556,28.3718859 C25.1912556,29.0591105 24.6617263,30.026611 24.0155045,30.5213329 L22.7524791,31.487836 C22.1062572,31.9825579 20.9589437,32.1481301 20.2028936,31.8548877 L16,30.2280905" id="Stroke-1" fill="#7688FF"></path>
                        <line x1="16.5" y1="30.5" x2="16.5" y2="2.5" id="Stroke-3" stroke="#161F31"></line>
                        <polyline id="Stroke-5" stroke="#161F31" points="29.628896 11 24.9747613 11 22 9"></polyline>
                        <line x1="26" y1="11" x2="24" y2="13" id="Stroke-7" stroke="#161F31"></line>
                        <polyline id="Stroke-9" stroke="#161F31" points="29 22 25.1534075 22 22 20"></polyline>
                        <line x1="24" y1="24" x2="22" y2="26" id="Stroke-11" stroke="#161F31"></line>
                        <path d="M16,2.3002409 L19.3713365,0.323348121 C20.0724725,-0.0885876604 21.2315533,-0.109533548 21.9464178,0.275471807 L23.2202299,0.960701545 C23.9350945,1.34470948 24.5205185,2.33315587 24.5205185,3.15603001 L24.5205185,4.02777788 C24.5205185,4.85164945 25.1637985,5.68350039 25.949267,5.87799792 L28.0065863,6.38568633 C28.7920548,6.58018385 29.4363154,7.4120348 29.4363154,8.23590636 L29.4363154,8.80244274 C29.4363154,9.62531688 29.7608973,10.884065 30.1590248,11.6012122 L31.7005434,14.3760436 C32.098671,15.0921934 32.0996516,16.2651631 31.7044659,16.9833078 L29.4863265,21.0039207 C29.0911408,21.7220654 28.7675395,22.9828084 28.7675395,23.8056825 L28.7675395,24.5497602 C28.7675395,25.3726343 28.1321044,26.2374003 27.356442,26.4697999 L26.6013725,26.6972124 C25.8257102,26.9306094 25.1912556,27.6836639 25.1912556,28.3718859 C25.1912556,29.0591105 24.6617263,30.026611 24.0155045,30.5213329 L22.7524791,31.487836 C22.1062572,31.9825579 20.9589437,32.1481301 20.2028936,31.8548877 L16,30.2280905" id="Stroke-1" stroke="#161F31" stroke-linecap="round"></path>
                        <path d="M16,2.3002409 L12.6286635,0.323348121 C11.9275275,-0.0885876604 10.7684467,-0.109533548 10.0535822,0.275471807 L8.77977007,0.960701545 C8.06490553,1.34470948 7.47948148,2.33315587 7.47948148,3.15603001 L7.47948148,4.02777788 C7.47948148,4.85164945 6.83620146,5.68350039 6.05073301,5.87799792 L3.99341366,6.38568633 C3.20794521,6.58018385 2.56368458,7.4120348 2.56368458,8.23590636 L2.56368458,8.80244274 C2.56368458,9.62531688 2.23910273,10.884065 1.84097516,11.6012122 L0.299456557,14.3760436 C-0.0986710198,15.0921934 -0.0996516296,16.2651631 0.295534118,16.9833078 L2.51367348,21.0039207 C2.90885922,21.7220654 3.23246046,22.9828084 3.23246046,23.8056825 L3.23246046,24.5497602 C3.23246046,25.3726343 3.8678956,26.2374003 4.64355795,26.4697999 L5.3986275,26.6972124 C6.17428984,26.9306094 6.80874438,27.6836639 6.80874438,28.3718859 C6.80874438,29.0591105 7.33827367,30.026611 7.98449553,30.5213329 L9.24752095,31.487836 C9.8937428,31.9825579 11.0410563,32.1481301 11.7971064,31.8548877 L16,30.2280905" id="Stroke-13" stroke="#161F31" stroke-linecap="round"></path>
                        <polyline id="Stroke-15" stroke="#161F31" points="2.33692629 11 7.02523874 11 10 9"></polyline>
                        <line x1="6" y1="11" x2="8" y2="13" id="Stroke-17" stroke="#161F31"></line>
                        <polyline id="Stroke-19" stroke="#161F31" points="3 22 6.84659249 22 10 20"></polyline>
                        <line x1="8" y1="24" x2="10" y2="26" id="Stroke-21" stroke="#161F31"></line>
                    </g>
                    <text id="RedisAI" font-family="Graphik-Regular, Graphik" font-size="10" font-weight="normal" letter-spacing="-0.238095238" fill="#161F31">
                        <tspan x="38.8633333" y="81">RedisAI</tspan>
                    </text>
                </g>
                <g id="Flat-Redis-Logo" transform="translate(213.000000, 201.000000) scale(-1, 1) translate(-213.000000, -201.000000) translate(157.000000, 145.000000)">
                    <polygon id="Fill-1" fill="#FF2620" points="0 112 112 112 112 0 0 0"></polygon>
                    <polygon id="Fill-2" fill="#FFFFFF" points="77 23 73.2857143 31.5460066 64 32.5491583 70.991373 38.6872165 68.9650534 48 77 43.1014682 85.0349466 48 83.008627 38.6872165 90 32.5491583 80.7142857 31.5460066"></polygon>
                    <polygon id="Fill-3" fill="#FFFFFF" points="24 46 45 46 45 25 24 25"></polygon>
                    <polygon id="Fill-4" fill="#FFFFFF" points="24 90 45 90 34.4990579 70"></polygon>
                    <path d="M67,79.4990322 C67,85.2982763 71.7012903,90 77.5,90 C83.2987097,90 88,85.2982763 88,79.4990322 C88,73.699788 83.2987097,69 77.5,69 C71.7012903,69 67,73.699788 67,79.4990322" id="Fill-5" fill="#FFFFFF"></path>
                </g>
            </g>
        </g>
    </g>
</svg>